<svg id="Слой_1" data-name="Слой 1" xmlns="http://www.w3.org/2000/svg" viewBox="0 0 800 800"><defs><style>.cls-1{fill:#fff;fill-rule:evenodd;}</style></defs><g id="Page-1"><g id="Dribbble-Light-Preview"><g id="icons"><path id="folder-_1793_" data-name="folder-[#1793]" class="cls-1" d="M720,320H80V120c0-22.08,13.48-40,35.56-40h134.2a40,40,0,0,1,35.92,22.4l45.44,92.76A80,80,0,0,0,403,240h272.6c22.08,0,44.44,17.92,44.44,40Zm0,360c0,22.08-22.36,40-44.44,40h-560C93.48,720,80,702.1,80,680V400H720Zm-4.44-520H445a80,80,0,0,1-71.56-44.24L337.68,44.26A80,80,0,0,0,266.12,0H75.56C31.36,0,0,35.82,0,80V720c0,44.2,31.36,80,75.56,80h640c44.16,0,84.44-35.8,84.44-80V240c0-44.2-40.28-80-84.44-80Z" transform="translate(0 -0.02)"/></g></g></g></svg>