<svg id="Слой_1" data-name="Слой 1" xmlns="http://www.w3.org/2000/svg" viewBox="0 0 733.33 633.33"><defs><style>.cls-1{fill:none;stroke:#fff;stroke-linecap:round;stroke-linejoin:round;stroke-width:66.67px;}</style></defs><path class="cls-1" d="M266.67,291.2a100,100,0,1,1,27.64-107.87M316.67,100V200h-100M450,133.33H593.33c37.34,0,56,0,70.27,7.27a66.67,66.67,0,0,1,29.13,29.13C700,184,700,202.66,700,240V533.33m-600,0V450M66.67,533.33H733.33V560c0,37.34,0,56-7.26,70.27a66.64,66.64,0,0,1-29.14,29.13c-14.26,7.27-32.93,7.27-70.26,7.27H173.33c-37.33,0-56,0-70.26-7.27a66.64,66.64,0,0,1-29.14-29.13C66.67,616,66.67,597.34,66.67,560Z" transform="translate(-33.33 -66.67)"/></svg>