<svg id="Слой_1" data-name="Слой 1" xmlns="http://www.w3.org/2000/svg" viewBox="0 0 666.67 666.66"><defs><style>.cls-1{fill:#fff;}</style></defs><path class="cls-1" d="M436.22,712.92l18.07-30.53c14-23.68,21-35.52,32.28-42.06s25.43-6.79,53.78-7.28c41.84-.72,68.09-3.29,90.1-12.4a166.68,166.68,0,0,0,90.2-90.2c12.68-30.63,12.68-69.46,12.68-147.12V350q0-18.48,0-34.94c0-14.24-17.46-22.29-30.06-15.64A150.06,150.06,0,0,1,500.58,96.76c6.65-12.6-1.4-30-15.64-30.06q-16.49,0-34.94,0H350c-109.11,0-163.67,0-203.75,24.56a166.52,166.52,0,0,0-55,55C66.67,186.33,66.67,240.89,66.67,350v33.33c0,77.66,0,116.49,12.68,147.12a166.68,166.68,0,0,0,90.2,90.2c22,9.11,48.26,11.68,90.1,12.4,28.35.49,42.52.73,53.78,7.28s18.26,18.38,32.28,42.06l18.07,30.53C379.88,740.13,420.12,740.13,436.22,712.92Z" transform="translate(-66.67 -66.67)"/><circle class="cls-1" cx="566.67" cy="100" r="100"/></svg>