<svg id="Слой_1" data-name="Слой 1" xmlns="http://www.w3.org/2000/svg" viewBox="0 0 716.67 691.67"><defs><style>.cls-1{fill:#fff;}</style></defs><path class="cls-1" d="M66.67,400C66.67,215.9,215.9,66.67,400,66.67c15.42,0,18,23.11,4.77,31.09A216.54,216.54,0,0,0,300,283.33C300,403,397,500,516.67,500A216.55,216.55,0,0,0,702.24,395.23c8-13.2,31.09-10.65,31.09,4.77a332.76,332.76,0,0,1-18,108.33h18a25,25,0,0,1,0,50H66.67a25,25,0,1,1,0-50h18A332.76,332.76,0,0,1,66.67,400Z" transform="translate(-41.67 -66.67)"/><path class="cls-1" d="M166.67,608.33a25,25,0,1,0,0,50H633.33a25,25,0,0,0,0-50Z" transform="translate(-41.67 -66.67)"/><path class="cls-1" d="M266.67,708.33a25,25,0,0,0,0,50H533.33a25,25,0,0,0,0-50Z" transform="translate(-41.67 -66.67)"/><path class="cls-1" d="M663.34,76.91c-5.37-13.66-24.62-13.66-30,0L619,113.42a16.17,16.17,0,0,1-9.08,9.11l-36.37,14.4c-13.61,5.38-13.61,24.7,0,30.09l36.37,14.4a16.11,16.11,0,0,1,9.08,9.11L633.36,227c5.36,13.65,24.61,13.65,30,0l14.34-36.51a16.14,16.14,0,0,1,9.08-9.11L723.14,167c13.6-5.39,13.6-24.71,0-30.09l-36.38-14.4a16.2,16.2,0,0,1-9.08-9.11Z" transform="translate(-41.67 -66.67)"/><path class="cls-1" d="M534.43,271a16.1,16.1,0,0,0-30,0l-5.23,13.31a16.1,16.1,0,0,1-9.07,9.11l-13.27,5.25c-13.6,5.39-13.6,24.71,0,30.09L490.14,334a16.14,16.14,0,0,1,9.07,9.12l5.23,13.31a16.1,16.1,0,0,0,30,0l5.23-13.31a16.14,16.14,0,0,1,9.07-9.12L562,328.75c13.6-5.38,13.6-24.7,0-30.09l-13.27-5.25a16.1,16.1,0,0,1-9.07-9.11Z" transform="translate(-41.67 -66.67)"/></svg>