<svg id="Слой_1" data-name="Слой 1" xmlns="http://www.w3.org/2000/svg" viewBox="0 0 772.77 792.19"><defs><style>.cls-1{fill:#fff;}</style></defs><path class="cls-1" d="M400,146.21c15.07-.34,27.12-12.73,27.12-30.14V33.71c0-17.42-12.05-29.8-27.12-29.8s-27.12,12.38-27.12,29.8v82.36C372.88,133.48,384.93,146.54,400,146.21Zm172.77,71.31c10.71,10.38,28.12,10.38,40.51-1.67l58.26-58.26c12.39-12.39,12.05-29.8,1.68-40.51s-27.79-10.72-40.18,1.67L574.78,177C562.39,189.4,562.05,207.14,572.77,217.52Zm-386-1.67c12.39,12.05,30.47,12.39,40.51,1.67,10.38-10.71,10.38-28.12-1.67-40.51L167.3,118.75c-12.72-12.39-29.8-12-40.18-1.67-11.05,10.37-11.05,28.12,1.34,40.51ZM85.27,539h680a21.08,21.08,0,0,0,21.09-21.43,20.79,20.79,0,0,0-21.09-21.09h-217a179.88,179.88,0,0,0,34.82-106.14c0-100.45-83-183.48-183.15-183.48-99.78,0-183.15,83-183.15,183.48a179.82,179.82,0,0,0,34.83,106.14H85.27a20.79,20.79,0,0,0-21.09,21.09A21.08,21.08,0,0,0,85.27,539ZM270.76,390.29c0-71,58.26-129.24,129.24-129.24s129.24,58.26,129.24,129.24a127.72,127.72,0,0,1-56.92,106.14H328A127.19,127.19,0,0,1,270.76,390.29ZM43.42,409h82.36c17.41,0,30.47-12.39,30.14-27.46-.34-14.73-12.73-27.12-30.14-27.12H43.42c-17.08,0-29.8,12.39-29.8,27.12C13.62,396.65,26.34,409,43.42,409Zm630.8,0h82.37c17.41,0,29.79-12.39,29.79-27.46,0-14.73-12.38-26.78-29.79-27.12H674.22c-17.41,0-30.47,12.39-30.13,27.12C644.42,396.65,656.81,409,674.22,409ZM34.71,667.52h680a20.59,20.59,0,0,0,21.09-21.09c0-12.06-9-21.43-21.09-21.43h-680a21.08,21.08,0,0,0-21.09,21.43A20.79,20.79,0,0,0,34.71,667.52ZM85.27,796.09h680a21.09,21.09,0,0,0,0-42.18h-680a21.09,21.09,0,1,0,0,42.18Z" transform="translate(-13.62 -3.91)"/></svg>